<svg width="320" height="320" viewBox="0 0 320 320" fill="none" xmlns="http://www.w3.org/2000/svg">
<g clip-path="url(#clip0_766_8356)">
<rect x="107.65" y="27.65" width="210.417" height="198.781" rx="12.2793" fill="white"/>
<rect x="107.65" y="27.65" width="210.417" height="198.781" rx="12.2793" stroke="#0050C3" stroke-width="1.3"/>
<circle cx="149.667" cy="69.6667" r="26.505" fill="#0050C3"/>
<rect opacity="0.7" x="185.869" y="56.0435" width="116.687" height="9.58289" rx="4.79144" fill="#C9D2DF"/>
<rect opacity="0.7" x="185.869" y="73.707" width="68.202" height="9.58289" rx="4.79144" fill="#C9D2DF"/>
<rect x="123.162" y="109.101" width="179.394" height="101.818" rx="12.9293" fill="#DEF0FF"/>
<g clip-path="url(#clip1_766_8356)">
<path d="M213 122.703C200.194 122.703 189.817 133.09 189.817 145.897C189.817 158.704 200.199 169.091 213 169.091C225.801 169.091 236.184 158.704 236.184 145.897C236.184 133.09 225.806 122.703 213 122.703ZM213 165.421C202.225 165.421 193.485 156.682 193.485 145.897C193.485 135.112 202.22 126.377 213 126.377C223.78 126.377 232.515 135.117 232.515 145.901C232.515 156.686 223.78 165.426 213 165.426V165.421Z" fill="#0050C3" stroke="#0050C3" stroke-width="1.3" stroke-linecap="round" stroke-linejoin="round"/>
<path d="M250.846 197.298H175.152C169.931 197.298 165.701 192.954 165.701 187.599L172.747 151.71C173.524 146.149 176.977 142.011 182.198 142.011H243.795C249.017 142.011 252.516 145.779 253.246 151.71L260.293 187.599C260.293 192.959 256.063 197.298 250.841 197.298H250.846Z" fill="white" stroke="#0050C3" stroke-width="1.3" stroke-linecap="round" stroke-linejoin="round"/>
<path d="M171.989 155.581C176.345 164.461 193.053 171.07 212.999 171.07C232.944 171.07 249.657 164.456 254.008 155.581L253.251 151.71C252.521 145.774 249.021 142.011 243.799 142.011H182.198C176.976 142.011 173.523 146.153 172.747 151.71L171.989 155.581Z" fill="white" stroke="#0050C3" stroke-width="1.3" stroke-linecap="round" stroke-linejoin="round"/>
<path d="M216.046 166.244H209.954C208.863 166.244 207.979 167.129 207.979 168.22V174.314C207.979 175.405 208.863 176.289 209.954 176.289H216.046C217.136 176.289 218.02 175.405 218.02 174.314V168.22C218.02 167.129 217.136 166.244 216.046 166.244Z" fill="white" stroke="#0050C3" stroke-width="1.3" stroke-linecap="round" stroke-linejoin="round"/>
</g>
<path d="M155.492 71.4212C155.184 71.2749 153.705 70.5437 153.429 70.4299C153.152 70.3162 152.957 70.2837 152.746 70.5924C152.535 70.9012 151.966 71.5674 151.787 71.7787C151.609 71.9899 151.446 72.0062 151.137 71.7787C150.251 71.4228 149.431 70.9171 148.716 70.2837C148.068 69.6739 147.52 68.9666 147.091 68.1874C146.912 67.8949 147.091 67.7324 147.221 67.5699C147.351 67.4074 147.514 67.2287 147.676 67.0499C147.795 66.8953 147.893 66.726 147.969 66.5462C148.009 66.4625 148.03 66.3709 148.03 66.2781C148.03 66.1852 148.009 66.0936 147.969 66.0099C147.969 65.8637 147.286 64.3849 147.026 63.7837C146.766 63.1824 146.539 63.2637 146.36 63.2637H145.71C145.4 63.2757 145.108 63.4102 144.897 63.6374C144.557 63.9619 144.288 64.3531 144.106 64.7865C143.924 65.2199 143.834 65.6862 143.841 66.1562C143.924 67.3099 144.348 68.4129 145.06 69.3249C146.365 71.2643 148.151 72.8319 150.244 73.8749C150.959 74.1837 151.511 74.3624 151.95 74.5087C152.566 74.6949 153.217 74.7339 153.851 74.6224C154.272 74.537 154.671 74.366 155.023 74.12C155.375 73.874 155.673 73.5583 155.899 73.1924C156.086 72.7406 156.148 72.2465 156.077 71.7624C155.996 71.6487 155.801 71.5674 155.492 71.4212Z" fill="white"/>
<path d="M158.531 60.3549C157.407 59.2205 156.068 58.3226 154.591 57.7142C153.115 57.1057 151.532 56.7991 149.935 56.8124C147.82 56.8235 145.744 57.3894 143.916 58.4535C142.088 59.5176 140.571 61.0428 139.517 62.8766C138.462 64.7105 137.908 66.7889 137.908 68.9042C137.908 71.0195 138.464 73.0977 139.519 74.9312L137.894 81.1874L144.296 79.5624C146.066 80.5256 148.05 81.0285 150.065 81.0249H149.935C152.336 81.0406 154.688 80.3406 156.69 79.0142C158.693 77.6879 160.254 75.7952 161.177 73.5777C162.099 71.3602 162.34 68.9182 161.869 66.5632C161.397 64.2082 160.236 62.0469 158.531 60.3549ZM149.935 78.9449C148.132 78.9464 146.363 78.4577 144.816 77.5312L144.459 77.3199L140.656 78.3112L141.664 74.6062L141.436 74.2324C140.138 72.1424 139.653 69.6487 140.072 67.2245C140.491 64.8002 141.785 62.6141 143.709 61.081C145.633 59.5478 148.053 58.7742 150.51 58.9069C152.966 59.0397 155.288 60.0696 157.036 61.8012C157.973 62.7305 158.715 63.837 159.22 65.0562C159.725 66.2753 159.983 67.5828 159.977 68.9024C159.973 71.5645 158.914 74.1164 157.031 75.9988C155.149 77.8812 152.597 78.9406 149.935 78.9449Z" fill="white"/>
<path d="M103.769 213.083L98.8188 208.133C86.292 195.606 69.3036 188.57 51.5892 188.57C39.6564 188.57 28.2208 193.336 19.8168 201.806C12.2268 209.457 7.65081 219.59 6.93361 230.344L5.77641 247.64C5.26161 249.783 5.09881 252.027 5.33201 254.28L5.22641 255.868L5.55641 255.811C5.86001 257.457 6.36601 259.098 7.11841 260.7C11.7604 270.608 23.5304 274.912 33.47 270.34L71.5124 256.185L68.8856 245L79.516 243.183L103.773 213.087L103.769 213.083Z" fill="white" stroke="#0050C3" stroke-width="1.3" stroke-linecap="round" stroke-linejoin="round"/>
<path d="M20.424 232.913L46.648 226.515L63.566 222.388" fill="white"/>
<path d="M20.424 232.913L46.648 226.515L63.566 222.388" stroke="#0050C3" stroke-width="1.3" stroke-linecap="round" stroke-linejoin="round"/>
<path d="M133.852 237.538L131.251 219.916L91.594 221.332L87.8716 234.638C83.674 249.655 94.96 264.532 110.554 264.532C124.933 264.532 135.955 251.763 133.852 237.538Z" fill="white" stroke="#0050C3" stroke-width="1.3" stroke-linecap="round" stroke-linejoin="round"/>
<path d="M133.02 138.169H84.9104C82.908 138.169 81.2848 139.792 81.2848 141.795V223.199C81.2848 225.201 82.908 226.825 84.9104 226.825H133.02C135.022 226.825 136.646 225.201 136.646 223.199V141.795C136.646 139.792 135.022 138.169 133.02 138.169Z" fill="#E8F5FF" stroke="#0050C3" stroke-width="1.3" stroke-linecap="round" stroke-linejoin="round"/>
<path d="M127.995 145.235H89.944C88.8286 145.235 87.9244 146.14 87.9244 147.255V217.743C87.9244 218.858 88.8286 219.763 89.944 219.763H127.995C129.111 219.763 130.015 218.858 130.015 217.743V147.255C130.015 146.14 129.111 145.235 127.995 145.235Z" fill="white" stroke="#0059D5" stroke-width="1.3" stroke-linecap="round" stroke-linejoin="round"/>
<path d="M137.483 164.415C139.915 163.107 140.826 160.077 139.519 157.646C138.212 155.215 135.181 154.305 132.749 155.612L128.091 158.118C125.659 159.425 124.747 162.456 126.055 164.887C127.362 167.318 130.393 168.228 132.824 166.92L137.483 164.415Z" fill="#DEF0FF" stroke="#0050C3" stroke-width="1.3" stroke-linecap="round" stroke-linejoin="round"/>
<path d="M89.1063 171.209C91.8372 169.74 92.861 166.337 91.393 163.607C89.925 160.877 86.5211 159.855 83.7901 161.323L78.5586 164.137C75.8277 165.605 74.804 169.009 76.272 171.738C77.74 174.468 81.1439 175.491 83.8748 174.022L89.1063 171.209Z" fill="#DEF0FF" stroke="#0050C3" stroke-width="1.3" stroke-linecap="round" stroke-linejoin="round"/>
<path d="M142.695 172.57C145.127 171.263 146.038 168.232 144.731 165.801C143.424 163.37 140.393 162.46 137.961 163.768L128.299 168.964C125.868 170.271 124.956 173.302 126.263 175.733C127.57 178.164 130.601 179.074 133.033 177.766L142.695 172.57Z" fill="#DEF0FF" stroke="#0050C3" stroke-width="1.3" stroke-linecap="round" stroke-linejoin="round"/>
<path d="M142.817 183.856C145.249 182.548 146.16 179.518 144.853 177.087C143.546 174.656 140.515 173.746 138.083 175.053L128.421 180.249C125.99 181.557 125.078 184.588 126.385 187.018C127.692 189.449 130.723 190.36 133.155 189.052L142.817 183.856Z" fill="#DEF0FF" stroke="#0050C3" stroke-width="1.3" stroke-linecap="round" stroke-linejoin="round"/>
<path d="M139.775 196.842C142.207 195.534 143.118 192.503 141.811 190.073C140.504 187.642 137.473 186.731 135.041 188.039L131.711 189.83C129.28 191.138 128.368 194.168 129.675 196.599C130.982 199.03 134.013 199.94 136.445 198.633L139.775 196.842Z" fill="#DEF0FF" stroke="#0050C3" stroke-width="1.3" stroke-linecap="round" stroke-linejoin="round"/>
<path d="M63.5792 222.398L68.6832 215.01C70.1352 212.907 72.3 211.398 74.7772 210.76C77.9232 209.95 81.2672 210.623 83.8544 212.59L85.3768 213.747L102.031 208.797C104.521 208.058 107.17 209.29 108.208 211.675C109.282 214.139 108.274 217.012 105.898 218.266L96.2668 223.357L97.6704 230.81C99.3248 239.58 94.3132 248.234 85.8872 251.169L71.5124 256.181L63.5836 222.393L63.5792 222.398Z" fill="#DEF0FF" stroke="#0050C3" stroke-width="1.3" stroke-linecap="round" stroke-linejoin="round"/>
<path d="M85.3724 213.748L75.3668 216.357" stroke="#0050C3" stroke-width="1.3" stroke-linecap="round" stroke-linejoin="round"/>
<g clip-path="url(#clip2_766_8356)">
<path d="M116.404 187.669H103.682L103.337 185.873H116.461C116.875 185.874 117.276 185.731 117.596 185.469C117.916 185.206 118.135 184.841 118.215 184.435L119.423 178.685C119.478 178.424 119.475 178.153 119.413 177.893C119.35 177.633 119.231 177.39 119.063 177.182C118.895 176.974 118.682 176.806 118.441 176.691C118.2 176.575 117.936 176.515 117.669 176.514H101.526L101.21 174.732H97.932V176.529H99.7289L101.885 187.799C101.259 187.947 100.7 188.301 100.299 188.804C99.8977 189.307 99.6767 189.93 99.6714 190.573C99.705 191.365 100.05 192.112 100.632 192.65C101.213 193.189 101.984 193.475 102.776 193.448C103.562 193.468 104.324 193.177 104.897 192.639C105.47 192.101 105.808 191.359 105.838 190.573C105.836 190.193 105.757 189.816 105.608 189.466H113.5C113.351 189.816 113.273 190.193 113.27 190.573C113.304 191.365 113.649 192.112 114.231 192.65C114.812 193.189 115.583 193.475 116.375 193.448C117.138 193.448 117.869 193.145 118.408 192.606C118.947 192.067 119.25 191.336 119.25 190.573C119.25 189.811 118.947 189.079 118.408 188.54C117.869 188.001 117.138 187.698 116.375 187.698L116.404 187.669ZM117.669 178.354L116.461 184.104H102.963L101.9 178.354H117.669ZM102.776 191.68C102.466 191.689 102.165 191.579 101.932 191.374C101.7 191.168 101.555 190.882 101.526 190.573C101.555 190.254 101.709 189.959 101.953 189.752C102.198 189.545 102.514 189.442 102.834 189.466C103.152 189.442 103.467 189.546 103.709 189.753C103.951 189.96 104.102 190.255 104.128 190.573C104.115 190.736 104.07 190.895 103.995 191.039C103.919 191.184 103.815 191.312 103.689 191.416C103.562 191.519 103.416 191.596 103.26 191.641C103.103 191.687 102.938 191.7 102.776 191.68V191.68ZM116.404 191.68C116.084 191.704 115.768 191.601 115.523 191.394C115.279 191.187 115.125 190.892 115.096 190.573C115.151 190.269 115.312 189.993 115.55 189.795C115.788 189.597 116.087 189.489 116.397 189.489C116.706 189.489 117.006 189.597 117.244 189.795C117.481 189.993 117.642 190.269 117.698 190.573C117.668 190.89 117.517 191.182 117.275 191.389C117.034 191.596 116.721 191.7 116.404 191.68V191.68Z" fill="#0059D5"/>
</g>
<path d="M39.6093 105.918C50.8392 104.785 60.8792 112.985 62.0121 124.215L21.3176 128.32C20.1847 117.091 28.3845 107.051 39.6143 105.918L39.6093 105.918Z" fill="#0050C3" stroke="#0050C3" stroke-width="1.3" stroke-linecap="round" stroke-linejoin="round"/>
<path d="M27.2605 121.392C23.6805 121.754 20.9841 124.915 21.3353 128.496C21.3378 128.521 21.3398 128.541 21.3423 128.566L25.5781 170.55C26.712 181.79 36.741 189.981 47.9809 188.847C59.2207 187.713 67.4115 177.684 66.2776 166.444L62.0413 124.455C62.0413 124.455 62.0368 124.41 62.0343 124.385C61.6631 120.806 58.3846 118.247 54.8096 118.608L27.265 121.387L27.2605 121.392Z" fill="#DEF0FF" stroke="#0050C3" stroke-width="1.3" stroke-linecap="round" stroke-linejoin="round"/>
<path d="M44.8051 156.367L45.91 156.256C49.57 155.887 52.2358 152.622 51.8666 148.962C51.6391 146.708 50.2822 144.723 48.2592 143.695L45.9645 142.527C44 141.528 42.6737 139.596 42.4522 137.401" stroke="#0050C3" stroke-width="1.3" stroke-linecap="round" stroke-linejoin="round"/>
<path d="M35.8645 140.591C36.4278 140.534 36.8384 140.031 36.7816 139.468C36.7248 138.905 36.222 138.494 35.6587 138.551C35.0954 138.608 34.6848 139.11 34.7416 139.674C34.7985 140.237 35.3012 140.648 35.8645 140.591Z" fill="#0050C3" stroke="#0050C3" stroke-width="1.3" stroke-linecap="round" stroke-linejoin="round"/>
<path d="M27.9841 134.572C31.2343 130.593 37.0948 130.007 41.0744 133.257" stroke="#0050C3" stroke-width="1.3" stroke-linecap="round" stroke-linejoin="round"/>
<path d="M51.7943 138.984C52.3576 138.927 52.7682 138.424 52.7114 137.861C52.6545 137.298 52.1518 136.887 51.5885 136.944C51.0251 137.001 50.6146 137.504 50.6714 138.067C50.7282 138.63 51.231 139.041 51.7943 138.984Z" fill="#0050C3" stroke="#0050C3" stroke-width="1.3" stroke-linecap="round" stroke-linejoin="round"/>
<path d="M43.9139 132.966C47.1642 128.986 53.0246 128.4 57.0042 131.65" stroke="#0050C3" stroke-width="1.3" stroke-linecap="round" stroke-linejoin="round"/>
<path d="M45.0225 156.37L34.8826 157.393C33.7122 157.506 33.0437 158.791 33.6267 159.813C36.3386 164.565 40.3542 167.822 46.1192 167.24C51.8841 166.659 55.1683 162.665 56.8764 157.467C57.2434 156.35 56.3319 155.224 55.1619 155.342L45.022 156.365L45.0225 156.37Z" fill="#DEF0FF" stroke="#0050C3" stroke-width="1.3" stroke-linecap="round" stroke-linejoin="round"/>
<path d="M55.7864 156.425C55.7864 156.425 51.7708 161.179 45.5608 161.806C39.3509 162.432 33.9117 158.632 33.9117 158.632" stroke="#0050C3" stroke-width="1.3" stroke-linecap="round" stroke-linejoin="round"/>
<path d="M64.8187 137.165L63.3337 137.314L64.6301 150.164L66.1151 150.014C69.6651 149.656 72.25 146.491 71.8918 142.941C71.5337 139.391 68.3687 136.806 64.8187 137.165Z" fill="#DEF0FF" stroke="#0050C3" stroke-width="1.5076" stroke-linecap="round" stroke-linejoin="round"/>
<path d="M22.6392 141.42L21.2142 141.564C17.6642 141.922 15.0793 145.087 15.4375 148.637C15.7956 152.187 18.9606 154.772 22.5106 154.414L23.9356 154.27L22.6392 141.42Z" fill="#DEF0FF" stroke="#0050C3" stroke-width="1.5076" stroke-linecap="round" stroke-linejoin="round"/>
<path d="M23.479 117.876L57.8598 114.419C59.4311 114.261 60.5768 112.86 60.4188 111.288L60.349 110.593C60.191 109.022 58.7892 107.876 57.2179 108.034L22.8371 111.491C21.2658 111.649 20.1201 113.05 20.278 114.622L20.3479 115.317C20.5059 116.888 21.9077 118.034 23.479 117.876Z" fill="white" stroke="#0050C3" stroke-width="1.5076" stroke-linecap="round" stroke-linejoin="round"/>
<path d="M55.0165 108.243L25.0453 111.252C28.0963 106.398 33.2096 102.912 39.2566 102.322C45.3735 101.725 51.097 104.088 55.016 108.238L55.0165 108.243Z" fill="white" stroke="#0050C3" stroke-width="1.5076" stroke-linecap="round" stroke-linejoin="round"/>
<path d="M51.6373 108.942L52.3863 114.564" stroke="#0050C3" stroke-width="1.5076" stroke-linecap="round" stroke-linejoin="round"/>
<path d="M43.7613 110.126L44.5153 115.747" stroke="#0050C3" stroke-width="1.5076" stroke-linecap="round" stroke-linejoin="round"/>
<path d="M35.9606 110.605L36.7146 116.226" stroke="#0050C3" stroke-width="1.5076" stroke-linecap="round" stroke-linejoin="round"/>
<path d="M28.1084 111.574L28.8624 117.195" stroke="#0050C3" stroke-width="1.5076" stroke-linecap="round" stroke-linejoin="round"/>
</g>
<defs>
<clipPath id="clip0_766_8356">
<rect width="320" height="320" fill="white"/>
</clipPath>
<clipPath id="clip1_766_8356">
<rect width="96" height="76" fill="white" transform="translate(165 122)"/>
</clipPath>
<clipPath id="clip2_766_8356">
<rect width="23" height="23" fill="white" transform="translate(97.197 172.591)"/>
</clipPath>
</defs>
</svg>
