<svg width="17" height="16" viewBox="0 0 17 16" fill="none" xmlns="http://www.w3.org/2000/svg">
<path fill-rule="evenodd" clip-rule="evenodd" d="M12.7313 2.46477C12.3986 2.99008 11.9528 3.43586 11.4275 3.76854C11.9528 4.10123 12.3986 4.54701 12.7313 5.07232C13.064 4.54701 13.5098 4.10123 14.0352 3.76854C13.5098 3.43586 13.064 2.99008 12.7313 2.46477ZM11.9985 0.622538C12.1348 -0.20735 13.3279 -0.20735 13.4641 0.622538L13.472 0.671078C13.6673 1.88226 14.6177 2.8326 15.829 3.02789L15.83 3.02805L15.8775 3.03579C16.7075 3.17204 16.7075 4.36504 15.8775 4.50129L15.829 4.50919C14.6177 4.70449 13.6673 5.65483 13.472 6.86601L13.4641 6.91455C13.3279 7.74444 12.1348 7.74444 11.9985 6.91455L11.9906 6.86601C11.7953 5.65483 10.8449 4.70449 9.63365 4.50919L9.5851 4.50129C8.75516 4.36504 8.75516 3.17204 9.5851 3.03579L9.63365 3.02789C10.8449 2.8326 11.7953 1.88226 11.9906 0.671078L11.9985 0.622538ZM5.84622 4.88385L5.9644 4.14986L5.96475 4.14772C6.11409 3.23877 7.42088 3.23877 7.57022 4.14772L7.57056 4.14986L7.68875 4.88385C8.01419 6.90281 9.59783 8.48637 11.6169 8.81184L12.3511 8.93004L12.3532 8.93039C13.2622 9.07971 13.2622 10.3864 12.3532 10.5357L12.3511 10.5361L11.617 10.6543C9.59798 10.9797 8.01426 12.5633 7.68877 14.5822L7.57056 15.3163L7.57022 15.3184C7.42088 16.2274 6.11409 16.2274 5.96475 15.3184L5.9644 15.3163L5.84622 14.5823C5.52073 12.5634 3.9371 10.9798 1.91806 10.6543L1.1839 10.5361L1.18176 10.5357C0.272746 10.3864 0.272746 9.07971 1.18176 8.93039L1.1839 8.93004L1.91794 8.81186C3.93702 8.48639 5.52077 6.90281 5.84622 4.88385ZM6.76748 6.53606C6.15147 7.97024 5.00454 9.1171 3.57026 9.73306C5.00454 10.349 6.15147 11.4959 6.76748 12.9301C7.38349 11.4959 8.53043 10.349 9.9647 9.73306C8.53043 9.1171 7.38349 7.97024 6.76748 6.53606Z" fill="#7A7A7A"/>
</svg>
