<svg width="9" height="15" viewBox="0 0 9 15" fill="none" xmlns="http://www.w3.org/2000/svg">
<path d="M8.49434 6.89378C8.36004 6.89461 8.23047 6.95093 8.13568 7.05116C8.04087 7.15138 7.98794 7.28722 7.98873 7.42801C7.98873 9.16655 6.42369 10.5812 4.49998 10.5812C2.57628 10.5812 1.01123 9.16653 1.01123 7.43056C1.01123 7.13735 0.784494 6.90046 0.505616 6.90046C0.226738 6.90046 0 7.13735 0 7.43056C0 9.75216 2.02246 11.6414 4.49998 11.6414C6.9775 11.6414 8.99997 9.74964 8.99997 7.42801C9.00154 7.28638 8.94861 7.15054 8.85381 7.04948C8.75901 6.94926 8.62942 6.89296 8.49434 6.89378Z" fill="black"/>
<path d="M4.49997 0C2.90728 0.00165665 1.61635 1.35422 1.61392 3.02409V6.98496C1.61392 8.65559 2.90561 10.0107 4.49997 10.0107C6.09434 10.0107 7.38603 8.65569 7.38603 6.98496V3.02409C7.38366 1.35429 6.09277 0.0016963 4.49997 0ZM6.3747 6.98475C6.3747 8.07062 5.5357 8.95023 4.49997 8.95023C3.46425 8.95023 2.62525 8.07062 2.62525 6.98475V3.02388C2.62525 1.93801 3.46425 1.05839 4.49997 1.05839C5.5357 1.05839 6.3747 1.93801 6.3747 3.02388V6.98475Z" fill="black"/>
<path d="M4.49998 10.5812C4.22347 10.5812 3.99751 10.8147 3.99436 11.1046V14.4699C3.99436 14.7622 4.2211 15 4.49997 15C4.77885 15 5.00559 14.7622 5.00559 14.4699V11.1046C5.00243 10.8147 4.77649 10.5812 4.49998 10.5812Z" fill="black"/>
<path d="M7.20421 13.9398H1.79574C1.51686 13.9398 1.29012 14.1767 1.29012 14.4699C1.29012 14.7623 1.51686 15 1.79574 15H7.20421C7.48309 15 7.70983 14.7623 7.70983 14.4699C7.70983 14.1767 7.48309 13.9398 7.20421 13.9398Z" fill="black"/>
</svg>
