<svg width="297" height="60" viewBox="0 0 297 60" fill="#2C3357" xmlns="http://www.w3.org/2000/svg"><path d="M35.6 0H35.5773C35.5773 0 35.5647 0 35.5571 0C30.3325 0.00755731 25.3548 2.06063 21.6391 5.67302C19.7372 4.86691 17.6891 4.44874 15.5731 4.44874C6.98547 4.44874 0 11.4342 0 20.0193C0 28.6044 6.98547 35.5899 15.5706 35.5899C17.6539 35.5899 19.7145 35.1642 21.6215 34.3631C25.2288 37.8722 30.1486 40.0386 35.5672 40.0386C46.6059 40.0386 55.5865 31.058 55.5865 20.0193C55.5865 8.9806 46.6236 0.0176337 35.6 0ZM35.5672 35.5899C26.9821 35.5899 19.9966 28.6044 19.9966 20.0193H15.5479C15.5479 23.9466 16.6891 27.6094 18.6489 30.7028C17.6514 30.99 16.616 31.1412 15.5706 31.1412C9.43908 31.1412 4.44874 26.1508 4.44874 20.0193C4.44874 13.8878 9.43908 8.89747 15.5706 8.89747C17.999 8.89747 20.3065 9.6658 22.2412 11.1193C25.0701 13.2429 26.6924 16.4875 26.6924 20.0193H31.1412C31.1412 15.3615 29.1234 11.0614 25.579 8.09388C28.3626 5.75867 31.8918 4.45126 35.5773 4.44874C44.1574 4.45377 51.1353 11.4367 51.1353 20.0193C51.1353 28.6019 44.1498 35.5899 35.5647 35.5899H35.5672Z"></path><path d="M81.8332 13.9428C82.4 14.958 82.6846 16.1319 82.6846 17.4645V28.929H78.3946V18.4797C78.3946 17.6938 78.2409 17.0161 77.9361 16.4494C77.6313 15.8826 77.2031 15.4442 76.6589 15.1394C76.1123 14.8346 75.4901 14.6809 74.7923 14.6809C74.0945 14.6809 73.4698 14.8346 72.9256 15.1394C72.379 15.4442 71.9533 15.8826 71.6484 16.4494C71.3411 17.0187 71.19 17.6938 71.19 18.4797V28.929H66.8672V11.1089H70.928V13.3005C71.3411 12.5649 71.9155 11.9805 72.6485 11.5497C73.5982 10.993 74.7066 10.7134 75.9737 10.7134C77.2409 10.7134 78.4475 10.998 79.4627 11.5648C80.4779 12.1341 81.2689 12.9251 81.8382 13.9403L81.8332 13.9428ZM97.2325 11.1089H101.522V21.9183C101.522 23.3819 101.19 24.6692 100.522 25.7826C99.8548 26.8961 98.9379 27.7652 97.7715 28.3874C96.6027 29.0096 95.2222 29.322 93.6276 29.322C92.033 29.322 90.6727 29.0096 89.4837 28.3874C88.2922 27.7652 87.3651 26.8961 86.7001 25.7826C86.0325 24.6692 85.7 23.3794 85.7 21.9183V11.1089H90.0228V21.7873C90.0228 22.5078 90.1764 23.1351 90.4813 23.6716C90.7861 24.2082 91.2118 24.6264 91.7584 24.9337C92.3051 25.2385 92.9273 25.3922 93.6251 25.3922C94.3229 25.3922 94.9779 25.2385 95.5245 24.9337C96.0712 24.6289 96.4918 24.2082 96.7866 23.6716C97.0813 23.1376 97.2299 22.5078 97.2299 21.7873V11.1089H97.2325ZM120.801 11.1089L113.791 28.929H109.992L102.981 11.1089H107.664L111.876 22.7396L116.116 11.1089H120.799H120.801ZM136.024 13.303C135.281 12.4944 134.382 11.8621 133.321 11.4036C132.261 10.9451 131.034 10.7159 129.636 10.7159C127.953 10.7159 126.447 11.1189 125.116 11.9276C123.784 12.7362 122.726 13.832 121.94 15.22C121.154 16.6081 120.761 18.1951 120.761 19.9862C120.761 21.7773 121.144 23.2837 121.907 24.7019C122.67 26.1227 123.746 27.2462 125.134 28.075C126.52 28.9063 128.132 29.3194 129.966 29.3194C131.167 29.3194 132.281 29.133 133.306 28.7627C134.331 28.3924 135.216 27.8785 135.959 27.2236C136.702 26.5686 137.246 25.8154 137.596 24.9639L134.125 23.261C133.732 23.9613 133.19 24.518 132.502 24.9312C131.815 25.3468 130.978 25.5534 129.996 25.5534C129.013 25.5534 128.144 25.3242 127.391 24.8657C126.638 24.4072 126.069 23.7573 125.688 22.9159C125.459 22.4095 125.315 21.8579 125.255 21.2608H138.087C138.175 20.9989 138.233 20.7092 138.266 20.3917C138.299 20.0743 138.317 19.7519 138.317 19.4244C138.317 18.2228 138.12 17.1043 137.727 16.0664C137.334 15.0286 136.765 14.1066 136.024 13.298V13.303ZM127.248 14.9404C127.945 14.4819 128.744 14.2527 129.638 14.2527C130.532 14.2527 131.379 14.4819 132.046 14.9404C132.712 15.3989 133.193 16.0211 133.487 16.8071C133.621 17.1648 133.702 17.5502 133.727 17.9533H125.346C125.419 17.5779 125.522 17.2278 125.658 16.9053C126.018 16.0539 126.547 15.3989 127.248 14.9404ZM166.42 13.9428C166.986 14.958 167.271 16.1319 167.271 17.4645V28.929H162.981V18.4797C162.981 17.6938 162.84 17.0161 162.555 16.4494C162.271 15.8826 161.873 15.4442 161.359 15.1394C160.845 14.8346 160.24 14.6809 159.54 14.6809C158.84 14.6809 158.263 14.8346 157.739 15.1394C157.215 15.4442 156.809 15.8826 156.527 16.4494C156.242 17.0187 156.101 17.6938 156.101 18.4797V28.929H151.811V18.4797C151.811 17.6938 151.67 17.0161 151.386 16.4494C151.101 15.8826 150.703 15.4442 150.189 15.1394C149.675 14.8346 149.071 14.6809 148.37 14.6809C147.67 14.6809 147.093 14.8346 146.569 15.1394C146.045 15.4442 145.64 15.8826 145.357 16.4494C145.073 17.0187 144.932 17.6938 144.932 18.4797V28.929H140.609V11.1089H144.67V13.3483C145.032 12.643 145.534 12.0812 146.176 11.6656C147.159 11.0333 148.315 10.7159 149.647 10.7159C151.111 10.7159 152.398 11.0988 153.512 11.8621C154.215 12.3432 154.759 12.9226 155.149 13.5952C155.625 12.8445 156.215 12.2374 156.918 11.7789C158.008 11.0685 159.265 10.7134 160.684 10.7134C161.951 10.7134 163.079 10.998 164.074 11.5648C165.067 12.1341 165.848 12.9251 166.417 13.9403L166.42 13.9428ZM174.184 16.0236C174.184 16.331 174.272 16.603 174.445 16.8423C174.619 17.0842 174.866 17.2781 175.184 17.4318C175.501 17.5855 175.866 17.7265 176.282 17.8575L179.131 18.709C180.595 19.1473 181.723 19.8023 182.522 20.6739C183.318 21.548 183.718 22.6186 183.718 23.8832C183.718 24.9538 183.434 25.8985 182.867 26.7172C182.3 27.5359 181.512 28.1758 180.509 28.6343C179.504 29.0927 178.325 29.322 176.972 29.322C175.073 29.322 173.418 28.8685 172.01 27.9617C170.601 27.0548 169.624 25.828 169.077 24.2762L172.319 22.737C172.778 23.7422 173.418 24.5281 174.236 25.0949C175.055 25.6617 175.967 25.9464 176.972 25.9464C177.735 25.9464 178.348 25.7726 178.806 25.4224C179.265 25.0722 179.494 24.6138 179.494 24.047C179.494 23.6968 179.401 23.4071 179.214 23.1779C179.028 22.9486 178.783 22.7521 178.476 22.5884C178.169 22.4247 177.821 22.2886 177.428 22.1778L174.514 21.3591C173.027 20.9434 171.899 20.2834 171.123 19.3765C170.347 18.4697 169.959 17.4066 169.959 16.1823C169.959 15.0916 170.239 14.1343 170.795 13.3156C171.352 12.4969 172.128 11.857 173.12 11.3985C174.113 10.9401 175.254 10.7108 176.544 10.7108C178.224 10.7108 179.71 11.1139 180.998 11.9225C182.285 12.7312 183.202 13.8673 183.749 15.3283L180.474 16.8675C180.169 16.0589 179.655 15.4216 178.935 14.9505C178.214 14.4819 177.405 14.2451 176.511 14.2451C175.791 14.2451 175.221 14.4038 174.808 14.7212C174.393 15.0387 174.186 15.4694 174.186 16.0161L174.184 16.0236ZM201.075 13.9428C201.642 14.958 201.926 16.1319 201.926 17.4645V28.929H197.636V18.4797C197.636 17.6938 197.483 17.0161 197.178 16.4494C196.873 15.8826 196.452 15.4442 195.916 15.1394C195.379 14.8346 194.752 14.6809 194.032 14.6809C193.311 14.6809 192.709 14.8346 192.165 15.1394C191.618 15.4442 191.192 15.8826 190.888 16.4494C190.58 17.0187 190.429 17.6938 190.429 18.4797V28.929H186.106V4.46094H190.429V12.8848C190.812 12.3432 191.298 11.8973 191.888 11.5522C192.837 10.9955 193.946 10.7159 195.213 10.7159C196.48 10.7159 197.687 11.0005 198.702 11.5673C199.717 12.1366 200.508 12.9276 201.077 13.9428H201.075ZM218.406 11.9276C216.986 11.1189 215.394 10.7159 213.625 10.7159C211.857 10.7159 210.295 11.1189 208.877 11.9276C207.456 12.7362 206.322 13.8396 205.471 15.2351C204.619 16.6332 204.194 18.2278 204.194 20.0164C204.194 21.805 204.619 23.4021 205.471 24.7977C206.322 26.1958 207.463 27.2991 208.894 28.1052C210.325 28.9139 211.902 29.3169 213.628 29.3169C215.353 29.3169 216.958 28.9139 218.376 28.1052C219.794 27.2966 220.931 26.1958 221.782 24.7977C222.633 23.3996 223.059 21.805 223.059 20.0164C223.059 18.2278 222.638 16.6055 221.797 15.2175C220.956 13.832 219.827 12.7337 218.406 11.925V11.9276ZM217.933 22.7874C217.507 23.6061 216.928 24.246 216.197 24.7045C215.464 25.1629 214.608 25.3922 213.625 25.3922C212.643 25.3922 211.811 25.1629 211.071 24.7045C210.328 24.246 209.743 23.6061 209.317 22.7874C208.892 21.9687 208.678 21.0467 208.678 20.0189C208.678 18.9911 208.892 18.0767 209.317 17.2681C209.743 16.4594 210.328 15.8271 211.071 15.3687C211.814 14.9102 212.665 14.6809 213.625 14.6809C214.585 14.6809 215.464 14.9102 216.197 15.3687C216.928 15.8271 217.507 16.4619 217.933 17.2681C218.359 18.0767 218.573 18.9936 218.573 20.0189C218.573 21.0442 218.359 21.9687 217.933 22.7874ZM243.068 15.3006C242.27 13.9025 241.197 12.7891 239.841 11.9603C238.486 11.1315 236.97 10.7159 235.289 10.7159C233.914 10.7159 232.702 10.9829 231.654 11.5195C230.815 11.9477 230.118 12.517 229.558 13.2173V11.1089H225.498V35.6122H229.82V27.2185C230.347 27.7778 230.974 28.2312 231.705 28.5688C232.785 29.0701 233.969 29.322 235.259 29.322C236.985 29.322 238.524 28.9114 239.877 28.0926C241.229 27.2739 242.3 26.1555 243.086 24.7347C243.872 23.3164 244.265 21.742 244.265 20.0189C244.265 18.2959 243.867 16.6987 243.068 15.3032V15.3006ZM239.154 22.8025C238.718 23.6112 238.121 24.2435 237.368 24.7019C236.614 25.1604 235.745 25.3896 234.763 25.3896C233.78 25.3896 232.977 25.1604 232.224 24.7019C231.47 24.2435 230.881 23.6112 230.455 22.8025C230.03 21.9939 229.815 21.0669 229.815 20.0189C229.815 18.971 230.03 18.0767 230.455 17.2681C230.881 16.4594 231.47 15.8271 232.224 15.3687C232.977 14.9102 233.823 14.6809 234.763 14.6809C235.703 14.6809 236.614 14.9102 237.368 15.3687C238.121 15.8271 238.715 16.4619 239.154 17.2681C239.59 18.0767 239.809 18.9936 239.809 20.0189C239.809 21.0442 239.59 21.9964 239.154 22.8025Z"></path><path d="M79.9324 44.5684C80.5344 45.5635 80.8367 46.6971 80.8367 47.9692V59.5974H78.8265V48.5385C78.8265 47.4654 78.6149 46.5434 78.1892 45.7751C77.7634 45.0042 77.179 44.4122 76.4308 43.9991C75.6827 43.586 74.8287 43.3794 73.8664 43.3794C72.9041 43.3794 71.9771 43.6137 71.2188 44.0822C70.458 44.5508 69.8786 45.2007 69.4756 46.027C69.0725 46.8532 68.8735 47.8029 68.8735 48.8761V59.5999H66.8633V41.7798H68.8735V44.1729C69.2841 43.4852 69.8358 42.9083 70.5311 42.4423C71.569 41.7495 72.7807 41.4044 74.1662 41.4044C75.3955 41.4044 76.5114 41.684 77.5166 42.2433C78.5217 42.8025 79.3253 43.5784 79.9299 44.5735L79.9324 44.5684ZM100.133 46.6467C100.524 47.6644 100.72 48.73 100.72 49.8485C100.72 50.0727 100.707 50.3069 100.687 50.5513C100.665 50.7982 100.632 51.0551 100.587 51.3221H86.0463C86.0891 52.5162 86.3662 53.5893 86.8801 54.539C87.4821 55.6575 88.3084 56.5342 89.3589 57.169C90.4093 57.8063 91.5706 58.1237 92.8428 58.1237C94.1149 58.1237 95.2662 57.8164 96.2285 57.2017C97.1882 56.5871 97.9717 55.7658 98.5737 54.738L100.282 55.6424C99.8786 56.4687 99.3093 57.2118 98.5737 57.8718C97.8356 58.5318 96.9817 59.0507 96.0093 59.4311C95.0369 59.8115 93.9814 60.0004 92.8428 60.0004C91.1676 60.0004 89.6586 59.5923 88.3185 58.7762C86.9783 57.96 85.9178 56.844 85.1343 55.4258C84.3509 54.0075 83.9604 52.4154 83.9604 50.6495C83.9604 48.8836 84.3408 47.3042 85.0991 45.9086C85.8573 44.513 86.8851 43.4121 88.1824 42.6086C89.4773 41.805 90.9308 41.4019 92.538 41.4019C93.7673 41.4019 94.8782 41.6261 95.8733 42.072C96.8683 42.5179 97.7273 43.1401 98.4528 43.9311C99.1783 44.7246 99.7376 45.629 100.128 46.6467H100.133ZM86.0815 49.4781H98.5763C98.5889 48.4604 98.3873 47.5258 97.9692 46.6794C97.4553 45.6416 96.7222 44.8153 95.775 44.2006C94.8253 43.586 93.7471 43.2786 92.5405 43.2786C91.3338 43.2786 90.228 43.596 89.2228 44.2334C88.2177 44.8707 87.4242 45.7423 86.8423 46.8482C86.4266 47.6367 86.1747 48.5133 86.079 49.4781H86.0815ZM123.949 37.6484H121.938V41.7798H118.588V43.6892H121.938V59.5974H123.949V43.6892H127.299V41.7798H123.949V37.6484ZM116.852 41.7798H114.338L109.376 48.9315L104.388 41.7798H101.874L108.121 50.6848L101.854 59.5999H104.368L109.373 52.4406L114.321 59.5999H116.835L110.602 50.6848L116.852 41.7798Z"></path></svg>