<svg xmlns="http://www.w3.org/2000/svg" viewBox="0 0 260 160" fill="none">
  <rect x="10" y="6" width="240" height="148" rx="16" fill="#F0F7FF"/>

  <!-- LEFT CARD: Existing portfolio (correct) -->
  <g transform="translate(28, 18)">
    <rect x="0" y="0" width="92" height="108" rx="10" fill="white" stroke="#25D366" stroke-width="2.2"/>
    <path d="M14 0h26l6 12H14V0z" fill="#25D366"/>
    <rect x="14" y="24" width="56" height="6" rx="3" fill="#DEF0FF"/>
    <rect x="14" y="36" width="42" height="5" rx="2.5" fill="#E8F5FF"/>
    <rect x="14" y="47" width="48" height="5" rx="2.5" fill="#E8F5FF"/>
    <circle cx="46" cy="72" r="12" fill="#DEF0FF"/>
    <circle cx="46" cy="68" r="4" fill="#0050C3"/>
    <path d="M37 82c0-5.5 4-10 9-10s9 4.5 9 10" fill="none" stroke="#0050C3" stroke-width="1.5" stroke-linecap="round"/>
    <text x="46" y="102" text-anchor="middle" font-family="system-ui, sans-serif" font-size="8" font-weight="600" fill="#25D366">Existente</text>
    <!-- Green check badge -->
    <circle cx="78" cy="14" r="15" fill="#25D366"/>
    <path d="M71 14l5 5 9-9" stroke="white" stroke-width="2.8" stroke-linecap="round" stroke-linejoin="round"/>
  </g>

  <!-- CENTER: Arrow pointing left -->
  <g transform="translate(114, 60)">
    <rect x="4" y="8" width="28" height="4" rx="2" fill="#25D366"/>
    <polygon points="4,4 0,10 4,16" fill="#25D366"/>
  </g>

  <!-- RIGHT CARD: New portfolio (wrong) -->
  <g transform="translate(140, 18)">
    <rect x="0" y="0" width="92" height="108" rx="10" fill="#FAFAFA" stroke="#D1D5DB" stroke-width="2" stroke-dasharray="6 4"/>
    <path d="M14 0h26l6 12H14V0z" fill="#E5E7EB"/>
    <line x1="46" y1="36" x2="46" y2="68" stroke="#D1D5DB" stroke-width="3.5" stroke-linecap="round"/>
    <line x1="30" y1="52" x2="62" y2="52" stroke="#D1D5DB" stroke-width="3.5" stroke-linecap="round"/>
    <text x="46" y="86" text-anchor="middle" font-family="system-ui, sans-serif" font-size="9" font-weight="500" fill="#AAA">Criar novo</text>
    <text x="46" y="102" text-anchor="middle" font-family="system-ui, sans-serif" font-size="8" font-weight="600" fill="#E05050">Evitar</text>
    <!-- Red X badge -->
    <circle cx="78" cy="14" r="15" fill="#E05050"/>
    <path d="M71 7l14 14M85 7L71 21" stroke="white" stroke-width="2.8" stroke-linecap="round"/>
  </g>
</svg>
