<svg width="32" height="32" viewBox="0 0 32 32" fill="none" xmlns="http://www.w3.org/2000/svg">
<rect x="0.5" y="0.5" width="31" height="31" rx="15.5" fill="#FEDEDE"/>
<rect x="0.5" y="0.5" width="31" height="31" rx="15.5" stroke="#C80003"/>
<path fill-rule="evenodd" clip-rule="evenodd" d="M15.9926 21.8166C15.6627 22.9921 14.9788 23.7286 14.1598 23.9398L14.1596 23.9398C13.8081 24.0303 13.4491 24.0175 13.1142 23.9099L13.114 23.9098C12.7836 23.8035 12.4837 23.6058 12.2389 23.3363L12.2388 23.3362C11.6168 22.6513 11.3767 21.5347 11.7579 20.2263L11.7616 20.2133L12.4581 18.2254L9.94503 18.2254C9.40784 18.2254 8.92059 18.0014 8.56971 17.6436C8.21886 17.2859 8 16.79 8 16.2441L8 12.0724C8 11.8087 8.0477 11.5543 8.14472 11.3147C8.24241 11.0733 8.38606 10.8585 8.56913 10.6719L8.56928 10.6717L10.1252 9.08658L10.1255 9.08628C10.4718 8.73233 10.8649 8.45997 11.3011 8.27557C11.7372 8.09081 12.205 8 12.6962 8L17.3311 8C17.6424 8 17.9412 8.03632 18.236 8.1134C18.483 8.17803 18.7195 8.26969 18.9507 8.38809C19.2014 8.15778 19.5056 8 19.9011 8L22.62 8C23.0013 8 23.3464 8.15971 23.5944 8.41214C23.8444 8.66573 24 9.01809 24 9.40515L24 17.1928C24 17.5799 23.8442 17.9309 23.5965 18.1838C23.348 18.4385 23.0017 18.5983 22.62 18.5983L19.9011 18.5983C19.5199 18.5983 19.1744 18.4384 18.9262 18.1854C18.8786 18.1371 18.8344 18.0853 18.7941 18.0303C18.3529 18.2879 17.9468 18.598 17.5724 19.0013C16.9932 19.6254 16.4601 20.503 15.9926 21.8166ZM13.557 22.4859C13.6336 22.5105 13.7158 22.5139 13.8003 22.4921C14.0149 22.4369 14.37 22.1741 14.5856 21.391L14.5892 21.3778L14.5936 21.3648C14.9864 20.1908 15.6343 18.9169 16.5058 17.9778C17.127 17.3086 17.8045 16.8487 18.5209 16.489L18.5209 9.84872L18.3745 9.76661C18.199 9.66815 18.0339 9.60073 17.8713 9.55825C17.7096 9.51597 17.5327 9.4939 17.3311 9.4939L12.6962 9.4939C12.388 9.4939 12.1119 9.54939 11.8648 9.65373L11.8642 9.65397C11.6177 9.75767 11.3841 9.91756 11.1653 10.1407L9.60923 11.7268C9.55441 11.7827 9.52123 11.8357 9.50159 11.8839L9.50152 11.8841C9.48247 11.9308 9.46898 11.9918 9.46898 12.0724L9.46898 16.2441C9.46898 16.3774 9.52218 16.4993 9.60981 16.5887C9.69741 16.678 9.81609 16.7315 9.94503 16.7315L13.4996 16.7315C14.004 16.7315 14.3625 17.24 14.1916 17.7288L13.1584 20.6743C12.9109 21.5459 13.0992 22.0852 13.3165 22.3246C13.3922 22.408 13.4762 22.4598 13.557 22.4859ZM22.531 17.1044L22.531 9.4939L19.9899 9.4939L19.9899 17.1044L22.531 17.1044Z" fill="#530001"/>
</svg>
