<svg width="8" height="8" viewBox="0 0 8 8" fill="none" xmlns="http://www.w3.org/2000/svg">
<path fill-rule="evenodd" clip-rule="evenodd" d="M3.99631 6.90831C3.83135 7.49603 3.48939 7.86432 3.07991 7.96989L3.0798 7.96992C2.90404 8.01515 2.72457 8.00875 2.55712 7.95494L2.55702 7.95491C2.39179 7.90173 2.24187 7.80289 2.11944 7.66817L2.11938 7.66811C1.80841 7.32566 1.68837 6.76737 1.87893 6.11313L1.88082 6.10663L2.22903 5.11268L0.972514 5.11268C0.703921 5.11268 0.460294 5.00071 0.284853 4.82181C0.109428 4.64294 -3.15161e-07 4.39498 -3.39023e-07 4.12203L-5.21372e-07 2.0362C-5.32898e-07 1.90436 0.023848 1.77713 0.0723581 1.65734C0.121203 1.53667 0.193032 1.42926 0.284567 1.33593L0.284641 1.33585L1.06258 0.543292L1.06273 0.543138C1.23589 0.366167 1.43243 0.229987 1.65054 0.137785C1.8686 0.045405 2.10251 5.15575e-07 2.3481 4.94105e-07L4.66553 2.91509e-07C4.82119 2.77901e-07 4.97061 0.0181592 5.11802 0.056701C5.24149 0.0890129 5.35975 0.134845 5.47534 0.194046C5.60069 0.0788901 5.75278 1.96458e-07 5.95053 1.7917e-07L7.31 6.03216e-08C7.50063 4.3656e-08 7.67319 0.0798545 7.79722 0.206068C7.9222 0.332867 8 0.509047 8 0.702577L8 4.59639C8 4.78993 7.92208 4.96544 7.79827 5.09192C7.67401 5.21925 7.50083 5.29916 7.31 5.29916L5.95053 5.29916C5.75997 5.29916 5.58722 5.21919 5.4631 5.09268C5.43931 5.06856 5.41721 5.04264 5.39704 5.01513C5.17644 5.14394 4.97338 5.29901 4.7862 5.50064C4.4966 5.81269 4.23006 6.2515 3.99631 6.90831ZM2.77849 7.24296C2.81682 7.25523 2.85788 7.25695 2.90013 7.24607C3.00744 7.21843 3.185 7.08706 3.29278 6.69551L3.2946 6.68889L3.29678 6.68238C3.4932 6.09538 3.81715 5.45846 4.25289 4.98891C4.56351 4.65432 4.90224 4.42435 5.26044 4.24452L5.26044 0.924362L5.18725 0.883303C5.0995 0.834075 5.01694 0.800364 4.93564 0.779123C4.8548 0.757984 4.76634 0.746948 4.66553 0.746948L2.3481 0.746948C2.19401 0.746948 2.05594 0.774697 1.93238 0.826867L1.93209 0.826987C1.80885 0.878837 1.69206 0.958781 1.58266 1.07034L0.804617 1.86339C0.777205 1.89135 0.760613 1.91786 0.750795 1.94196L0.750761 1.94205C0.741234 1.96542 0.734491 1.99592 0.734491 2.03619L0.734491 4.12203C0.734491 4.18871 0.761092 4.24967 0.804904 4.29435C0.848703 4.33901 0.908043 4.36573 0.972514 4.36573L2.7498 4.36573C3.00202 4.36573 3.18124 4.62002 3.0958 4.86439L2.57919 6.33716C2.45543 6.77297 2.54958 7.04262 2.65825 7.16229C2.69612 7.20402 2.73809 7.22992 2.77849 7.24296ZM7.26551 4.55221L7.26551 0.746948L5.99493 0.746948L5.99493 4.55221L7.26551 4.55221Z" fill="#C80003"/>
</svg>
