<svg width="32" height="32" viewBox="0 0 32 32" fill="none" xmlns="http://www.w3.org/2000/svg">
<rect x="0.5" y="0.5" width="31" height="31" rx="15.5" fill="#DEFEF2"/>
<rect x="0.5" y="0.5" width="31" height="31" rx="15.5" stroke="#00C87B"/>
<path fill-rule="evenodd" clip-rule="evenodd" d="M16.0074 10.1834C16.3373 9.00794 17.0212 8.27136 17.8402 8.06022L17.8404 8.06017C18.1919 7.96971 18.5509 7.9825 18.8858 8.09012L18.886 8.09018C19.2164 8.19654 19.5163 8.39423 19.7611 8.66366L19.7612 8.66379C20.3832 9.34868 20.6233 10.4653 20.2421 11.7737L20.2384 11.7867L19.5419 13.7746H22.055C22.5922 13.7746 23.0794 13.9986 23.4303 14.3564C23.7811 14.7141 24 15.21 24 15.7559V19.9276C24 20.1913 23.9523 20.4457 23.8553 20.6853C23.7576 20.9267 23.6139 21.1415 23.4309 21.3281L23.4307 21.3283L21.8748 22.9134L21.8745 22.9137C21.5282 23.2677 21.1351 23.54 20.6989 23.7244C20.2628 23.9092 19.795 24 19.3038 24H14.6689C14.3576 24 14.0588 23.9637 13.764 23.8866C13.517 23.822 13.2805 23.7303 13.0493 23.6119C12.7986 23.8422 12.4944 24 12.0989 24H9.38C8.99873 24 8.65362 23.8403 8.40556 23.5879C8.15559 23.3343 8 22.9819 8 22.5948V14.8072C8 14.4201 8.15584 14.0691 8.40346 13.8162C8.65199 13.5615 8.99835 13.4017 9.38 13.4017H12.0989C12.4801 13.4017 12.8256 13.5616 13.0738 13.8146C13.1214 13.8629 13.1656 13.9147 13.2059 13.9697C13.6471 13.7121 14.0532 13.402 14.4276 12.9987C15.0068 12.3746 15.5399 11.497 16.0074 10.1834ZM18.443 9.51408C18.3664 9.48953 18.2842 9.48611 18.1997 9.50786C17.9851 9.56314 17.63 9.82588 17.4144 10.609L17.4108 10.6222L17.4064 10.6352C17.0136 11.8092 16.3657 13.0831 15.4942 14.0222C14.873 14.6914 14.1955 15.1513 13.4791 15.511V22.1513L13.6255 22.2334C13.801 22.3319 13.9661 22.3993 14.1287 22.4418C14.2904 22.484 14.4673 22.5061 14.6689 22.5061H19.3038C19.612 22.5061 19.8881 22.4506 20.1352 22.3463L20.1358 22.346C20.3823 22.2423 20.6159 22.0824 20.8347 21.8593L22.3908 20.2732C22.4456 20.2173 22.4788 20.1643 22.4984 20.1161L22.4985 20.1159C22.5175 20.0692 22.531 20.0082 22.531 19.9276V15.7559C22.531 15.6226 22.4778 15.5007 22.3902 15.4113C22.3026 15.322 22.1839 15.2685 22.055 15.2685H18.5004C17.996 15.2685 17.6375 14.76 17.8084 14.2712L18.8416 11.3257C19.0891 10.4541 18.9008 9.91476 18.6835 9.67542C18.6078 9.59197 18.5238 9.54017 18.443 9.51408ZM9.46898 14.8956V22.5061H12.0101V14.8956H9.46898Z" fill="#005333"/>
</svg>
