<svg width="8" height="8" viewBox="0 0 8 8" fill="none" xmlns="http://www.w3.org/2000/svg">
<path fill-rule="evenodd" clip-rule="evenodd" d="M4.00369 1.09169C4.16865 0.503972 4.51061 0.13568 4.92009 0.0301112L4.9202 0.0300835C5.09596 -0.0151461 5.27543 -0.00875001 5.44288 0.0450581L5.44298 0.0450914C5.60821 0.098269 5.75813 0.197115 5.88056 0.331828L5.88062 0.331894C6.19159 0.674338 6.31163 1.23263 6.12107 1.88687L6.11918 1.89337L5.77097 2.88732H7.02749C7.29608 2.88732 7.53971 2.9993 7.71515 3.17819C7.89057 3.35706 8 3.60502 8 3.87797V5.96381C8 6.09564 7.97615 6.22287 7.92764 6.34266C7.8788 6.46333 7.80697 6.57074 7.71543 6.66407L7.71536 6.66415L6.93742 7.45671L6.93727 7.45686C6.76411 7.63383 6.56757 7.77001 6.34945 7.86222C6.13139 7.9546 5.89749 8 5.6519 8H3.33447C3.17881 8 3.02939 7.98184 2.88198 7.9433C2.75851 7.91099 2.64025 7.86515 2.52466 7.80595C2.39931 7.92111 2.24722 8 2.04947 8H0.689998C0.499366 8 0.326811 7.92015 0.202782 7.79393C0.0777959 7.66713 0 7.49095 0 7.29742V3.40361C0 3.21007 0.0779203 3.03456 0.201728 2.90808C0.325994 2.78075 0.499173 2.70084 0.689998 2.70084H2.04947C2.24003 2.70084 2.41278 2.78081 2.5369 2.90732C2.56069 2.93144 2.58279 2.95736 2.60296 2.98487C2.82356 2.85606 3.02662 2.70099 3.2138 2.49936C3.5034 2.18731 3.76994 1.7485 4.00369 1.09169ZM5.22151 0.757042C5.18318 0.744767 5.14212 0.743054 5.09987 0.753932C4.99256 0.781572 4.815 0.912942 4.70722 1.30449L4.7054 1.31111L4.70322 1.31762C4.5068 1.90462 4.18285 2.54154 3.74711 3.01109C3.43649 3.34568 3.09776 3.57565 2.73956 3.75548V7.07564L2.81275 7.1167C2.9005 7.16593 2.98305 7.19964 3.06436 7.22088C3.1452 7.24202 3.23366 7.25305 3.33447 7.25305H5.6519C5.80599 7.25305 5.94406 7.2253 6.06762 7.17313L6.06791 7.17301C6.19115 7.12116 6.30794 7.04122 6.41734 6.92966L7.19538 6.13661C7.22279 6.10865 7.23939 6.08214 7.2492 6.05804L7.24924 6.05795C7.25877 6.03458 7.26551 6.00408 7.26551 5.96381V3.87797C7.26551 3.81129 7.23891 3.75033 7.1951 3.70565C7.1513 3.66099 7.09196 3.63427 7.02749 3.63427H5.2502C4.99798 3.63427 4.81876 3.37998 4.9042 3.13561L5.42081 1.66284C5.54457 1.22703 5.45042 0.957381 5.34175 0.837708C5.30388 0.795984 5.26191 0.770083 5.22151 0.757042ZM0.734491 3.44779V7.25305H2.00507V3.44779H0.734491Z" fill="#00C87B"/>
</svg>
