<svg width="297" height="60" viewBox="0 0 300 60" fill="#2C3357" xmlns="http://www.w3.org/2000/svg"><path d="M76.3273 28.9276V11.1075H80.6174V28.9276H76.3273ZM99.8885 16.0701C99.4955 15.0322 98.9262 14.1102 98.1856 13.3016C97.4424 12.493 96.5431 11.8607 95.4826 11.4022C94.422 10.9437 93.1952 10.7145 91.7971 10.7145C90.1371 10.7145 88.6357 11.1175 87.293 11.9262C85.9503 12.7348 84.8898 13.8306 84.1164 15.2186C83.3405 16.6067 82.9526 18.1937 82.9526 19.9848C82.9526 21.7759 83.3355 23.2823 84.0988 24.7006C84.862 26.1213 85.9327 27.2448 87.3081 28.0736C88.6835 28.9049 90.2882 29.3181 92.1221 29.3181C93.3439 29.3181 94.4649 29.1317 95.4801 28.7613C96.4953 28.391 97.3744 27.8771 98.1176 27.2222C98.8607 26.5672 99.4048 25.814 99.755 24.9625L96.2837 23.2596C95.8907 23.9599 95.3491 24.5167 94.6614 24.9298C93.9736 25.3454 93.1373 25.552 92.1548 25.552C91.1724 25.552 90.3033 25.3228 89.5501 24.8643C88.7969 24.4058 88.2276 23.7559 87.8472 22.9145C87.6129 22.4006 87.4668 21.8363 87.4089 21.2267H100.244C100.332 20.9874 100.39 20.7027 100.423 20.3752C100.455 20.0478 100.473 19.7304 100.473 19.4255C100.473 18.2239 100.276 17.1055 99.8835 16.0676L99.8885 16.0701ZM89.4065 14.9239C90.1043 14.4755 90.9029 14.2513 91.7971 14.2513C92.6914 14.2513 93.5378 14.4805 94.2054 14.939C94.8704 15.3975 95.3516 16.0197 95.6463 16.8057C95.7798 17.1634 95.8605 17.5463 95.8932 17.9519H87.5021C87.5751 17.5715 87.6784 17.2163 87.817 16.8863C88.1772 16.0248 88.7062 15.3698 89.4065 14.9214V14.9239ZM117.704 13.9415C117.137 12.9263 116.343 12.1353 115.328 11.5659C114.313 10.9991 113.149 10.7145 111.839 10.7145C110.529 10.7145 109.464 10.9941 108.514 11.5508C107.781 11.9816 107.209 12.566 106.793 13.3016V11.11H102.765V28.9301H107.055V18.4809C107.055 17.6949 107.209 17.0173 107.514 16.4505C107.819 15.8837 108.244 15.4403 108.791 15.1229C109.338 14.8055 109.96 14.6468 110.658 14.6468C111.355 14.6468 112.005 14.8055 112.542 15.1229C113.076 15.4403 113.497 15.8812 113.804 16.4505C114.109 17.0198 114.263 17.6949 114.263 18.4809V28.9301H118.553V17.4657C118.553 16.1331 118.268 14.9592 117.701 13.944L117.704 13.9415ZM135.214 4.42177V12.9111C134.7 12.3494 134.085 11.8834 133.362 11.5181C132.302 10.984 131.098 10.7145 129.742 10.7145C128.06 10.7145 126.538 11.1301 125.173 11.9589C123.807 12.7902 122.732 13.9037 121.946 15.2993C121.16 16.6974 120.767 18.2693 120.767 20.015C120.767 21.7608 121.16 23.3125 121.946 24.7308C122.732 26.1516 123.802 27.27 125.155 28.0887C126.508 28.9075 128.05 29.3181 129.773 29.3181C131.06 29.3181 132.251 29.0611 133.342 28.5472C134.184 28.1517 134.881 27.6202 135.438 26.9577V28.9226H139.499V4.42177H135.209H135.214ZM134.577 22.8011C134.151 23.6098 133.566 24.2421 132.823 24.7006C132.08 25.159 131.219 25.3883 130.236 25.3883C129.254 25.3883 128.412 25.159 127.649 24.7006C126.883 24.2421 126.289 23.6098 125.863 22.8011C125.437 21.9925 125.223 21.0655 125.223 20.0175C125.223 18.9696 125.437 18.0476 125.863 17.249C126.289 16.453 126.883 15.8182 127.649 15.3496C128.412 14.8811 129.276 14.6443 130.236 14.6443C131.196 14.6443 132.08 14.8735 132.823 15.332C133.566 15.7905 134.151 16.4303 134.577 17.249C135.002 18.0678 135.216 18.9897 135.216 20.0175C135.216 21.0453 135.002 21.995 134.577 22.8011ZM156.798 13.745C156.175 12.7953 155.306 12.0521 154.193 11.5181C153.079 10.984 151.79 10.7145 150.328 10.7145C149.127 10.7145 148.013 10.911 146.988 11.304C145.96 11.6969 145.071 12.2385 144.318 12.9263C143.565 13.614 143.013 14.4276 142.663 15.3673L146.167 17.0702C146.494 16.2616 147.013 15.6116 147.724 15.1204C148.434 14.6292 149.248 14.3823 150.165 14.3823C151.147 14.3823 151.938 14.6393 152.54 15.1531C153.14 15.667 153.442 16.3044 153.442 17.0702V17.6471L148.137 18.5111C146.739 18.7303 145.583 19.1006 144.666 19.6246C143.749 20.1485 143.071 20.7985 142.635 21.5743C142.197 22.3502 141.98 23.2294 141.98 24.2118C141.98 25.1943 142.232 26.139 142.733 26.9148C143.235 27.6907 143.945 28.2852 144.862 28.7009C145.779 29.1165 146.86 29.3231 148.104 29.3231C149.087 29.3231 149.981 29.1871 150.79 28.9125C151.598 28.6404 152.319 28.2474 152.951 27.7336C153.208 27.527 153.445 27.2927 153.671 27.0458V28.9301H157.732V17.0727C157.732 15.8056 157.42 14.6972 156.798 13.7475V13.745ZM152.865 23.8818C152.482 24.5595 151.948 25.0885 151.261 25.4714C150.573 25.8543 149.782 26.0458 148.885 26.0458C148.185 26.0458 147.603 25.8669 147.132 25.5041C146.661 25.1439 146.426 24.6577 146.426 24.0456C146.426 23.4334 146.633 22.8994 147.049 22.5064C147.464 22.1134 148.097 21.8414 148.948 21.6877L153.435 20.9244V21.655C153.435 22.4636 153.243 23.2067 152.86 23.8818H152.865ZM176.044 13.9415C175.477 12.9263 174.683 12.1353 173.668 11.5659C172.653 10.9991 171.489 10.7145 170.179 10.7145C168.869 10.7145 167.804 10.9941 166.854 11.5508C166.121 11.9816 165.549 12.566 165.133 13.3016V11.11H161.105V28.9301H165.395V18.4809C165.395 17.6949 165.549 17.0173 165.854 16.4505C166.159 15.8837 166.584 15.4403 167.131 15.1229C167.678 14.8055 168.3 14.6468 168.998 14.6468C169.695 14.6468 170.345 14.8055 170.882 15.1229C171.416 15.4403 171.837 15.8812 172.144 16.4505C172.449 17.0198 172.602 17.6949 172.602 18.4809V28.9301H176.892V17.4657C176.892 16.1331 176.608 14.9592 176.041 13.944L176.044 13.9415ZM187.825 29.3206C186.274 29.3206 184.903 29.0082 183.714 28.386C182.523 27.7638 181.601 26.8947 180.946 25.7812C180.291 24.6678 179.963 23.378 179.963 21.9169V11.1075H184.253V21.7859C184.253 22.5064 184.407 23.1412 184.712 23.6854C185.017 24.232 185.442 24.6527 185.989 24.9474C186.536 25.2422 187.158 25.3908 187.856 25.3908C188.553 25.3908 189.203 25.2447 189.74 24.9474C190.274 24.6527 190.695 24.232 191.002 23.6854C191.307 23.1387 191.46 22.5064 191.46 21.7859V11.1075H195.75V21.9169C195.75 23.3805 195.418 24.6678 194.75 25.7812C194.083 26.8947 193.161 27.7638 191.982 28.386C190.803 29.0082 189.415 29.3206 187.823 29.3206H187.825ZM216.667 15.2993C215.868 13.9012 214.795 12.7877 213.44 11.9589C212.084 11.1301 210.568 10.7145 208.888 10.7145C207.512 10.7145 206.3 10.9815 205.253 11.5181C204.54 11.8834 203.93 12.3469 203.419 12.9086V4.42177H199.129V28.9276H203.157V26.9073C203.731 27.595 204.446 28.1442 205.303 28.5497C206.384 29.0636 207.568 29.3206 208.857 29.3206C210.583 29.3206 212.122 28.91 213.475 28.0913C214.828 27.2726 215.898 26.1541 216.684 24.7333C217.47 23.315 217.863 21.7406 217.863 20.0175C217.863 18.2945 217.465 16.6974 216.667 15.3018V15.2993ZM212.77 22.8011C212.344 23.6098 211.749 24.2421 210.983 24.7006C210.218 25.159 209.346 25.3883 208.364 25.3883C207.381 25.3883 206.578 25.159 205.824 24.7006C205.071 24.2421 204.482 23.6098 204.056 22.8011C203.63 21.9925 203.416 21.0655 203.416 20.0175C203.416 18.9696 203.63 18.0678 204.056 17.249C204.482 16.4303 205.071 15.7905 205.824 15.332C206.578 14.8735 207.424 14.6443 208.364 14.6443C209.303 14.6443 210.22 14.8786 210.983 15.3496C211.747 15.8207 212.344 16.453 212.77 17.249C213.195 18.0476 213.409 18.9696 213.409 20.0175C213.409 21.0655 213.195 21.995 212.77 22.8011ZM236.212 16.0701C235.819 15.0322 235.25 14.1102 234.509 13.3016C233.766 12.493 232.867 11.8607 231.806 11.4022C230.746 10.9437 229.519 10.7145 228.121 10.7145C226.461 10.7145 224.959 11.1175 223.617 11.9262C222.274 12.7348 221.214 13.8306 220.44 15.2186C219.664 16.6067 219.276 18.1937 219.276 19.9848C219.276 21.7759 219.659 23.2823 220.423 24.7006C221.186 26.1213 222.256 27.2448 223.632 28.0736C225.007 28.9049 226.612 29.3181 228.446 29.3181C229.668 29.3181 230.789 29.1317 231.804 28.7613C232.819 28.391 233.698 27.8771 234.441 27.2222C235.184 26.5672 235.729 25.814 236.079 24.9625L232.607 23.2596C232.214 23.9599 231.673 24.5167 230.985 24.9298C230.297 25.3454 229.461 25.552 228.479 25.552C227.496 25.552 226.627 25.3228 225.874 24.8643C225.121 24.4058 224.551 23.7559 224.171 22.9145C223.937 22.4006 223.791 21.8363 223.733 21.2267H236.567C236.656 20.9874 236.714 20.7027 236.746 20.3752C236.779 20.0478 236.797 19.7304 236.797 19.4255C236.797 18.2239 236.6 17.1055 236.207 16.0676L236.212 16.0701ZM225.982 14.9239C226.68 14.4755 227.479 14.2513 228.373 14.2513C229.267 14.2513 230.114 14.4805 230.781 14.939C231.446 15.3975 231.927 16.0197 232.222 16.8057C232.356 17.1634 232.439 17.5463 232.469 17.9519H224.078C224.151 17.5715 224.254 17.2163 224.393 16.8863C224.753 16.0248 225.282 15.3698 225.982 14.9214V14.9239ZM71.1833 11.1226V6.09193H66.9134V11.1226H63.9258V14.939H66.9134V28.9251H71.1833V14.939H74.171V11.1226H71.1833ZM78.4912 3.57031C77.0982 3.57031 75.9696 4.69887 75.9696 6.09193C75.9696 7.485 77.0982 8.61356 78.4912 8.61356C79.8843 8.61356 81.0129 7.485 81.0129 6.09193C81.0129 4.69887 79.8843 3.57031 78.4912 3.57031Z"></path><path d="M35.6 0H35.5773C35.5773 0 35.5647 0 35.5571 0C30.3325 0.00755731 25.3548 2.06063 21.6391 5.67302C19.7372 4.86691 17.6891 4.44874 15.5731 4.44874C6.98547 4.44874 0 11.4342 0 20.0193C0 28.6044 6.98547 35.5899 15.5706 35.5899C17.6539 35.5899 19.7145 35.1642 21.6215 34.3631C25.2288 37.8722 30.1486 40.0386 35.5672 40.0386C46.6059 40.0386 55.5865 31.058 55.5865 20.0193C55.5865 8.9806 46.6236 0.0176337 35.6 0ZM35.5672 35.5899C26.9821 35.5899 19.9966 28.6044 19.9966 20.0193H15.5479C15.5479 23.9466 16.6891 27.6094 18.6489 30.7028C17.6514 30.99 16.616 31.1412 15.5706 31.1412C9.43908 31.1412 4.44874 26.1508 4.44874 20.0193C4.44874 13.8878 9.43908 8.89747 15.5706 8.89747C17.999 8.89747 20.3065 9.6658 22.2412 11.1193C25.0701 13.2429 26.6924 16.4875 26.6924 20.0193H31.1412C31.1412 15.3615 29.1234 11.0614 25.579 8.09388C28.3626 5.75867 31.8918 4.45126 35.5773 4.44874C44.1574 4.45377 51.1353 11.4367 51.1353 20.0193C51.1353 28.6019 44.1498 35.5899 35.5647 35.5899H35.5672Z"></path><path d="M79.7541 43.9293C79.0286 43.1357 78.1671 42.516 77.1746 42.0702C76.1795 41.6243 75.0686 41.4001 73.8393 41.4001C72.2321 41.4001 70.7786 41.8031 69.4837 42.6067C68.1889 43.4103 67.1586 44.5112 66.4004 45.9068C65.6396 47.3023 65.2617 48.8843 65.2617 50.6477C65.2617 52.4111 65.6522 54.0057 66.4356 55.4239C67.2165 56.8422 68.2796 57.9607 69.6198 58.7743C70.9599 59.5905 72.4689 59.9986 74.1441 59.9986C75.2827 59.9986 76.3382 59.8097 77.3106 59.4293C78.283 59.0489 79.1369 58.53 79.875 57.87C80.6131 57.21 81.1825 56.4694 81.583 55.6406L79.875 54.7362C79.273 55.764 78.4895 56.5852 77.5298 57.1999C76.57 57.8146 75.4414 58.1219 74.1441 58.1219C72.8467 58.1219 71.7081 57.8045 70.6602 57.1671C69.6097 56.5298 68.7834 55.6532 68.1788 54.5372C67.6649 53.5875 67.3878 52.5144 67.345 51.3203H81.8853C81.9306 51.0533 81.9634 50.7963 81.986 50.5495C82.0087 50.3051 82.0188 50.0683 82.0188 49.8466C82.0188 48.7307 81.8223 47.6626 81.4318 46.6474C81.0414 45.6297 80.4821 44.7253 79.7566 43.9318L79.7541 43.9293ZM68.1411 46.8439C68.723 45.738 69.5165 44.8664 70.5216 44.229C71.5267 43.5917 72.6326 43.2743 73.8393 43.2743C75.0459 43.2743 76.1241 43.5816 77.0738 44.1963C78.0235 44.8109 78.754 45.6372 79.2679 46.6751C79.6861 47.5215 79.8876 48.4561 79.875 49.4738H67.3803C67.476 48.509 67.7279 47.6323 68.1436 46.8439H68.1411ZM112.452 42.6067C111.089 41.8031 109.558 41.4001 107.86 41.4001C106.162 41.4001 104.603 41.8031 103.252 42.6067C101.9 43.4103 100.829 44.5162 100.035 45.9244C99.2419 47.3326 98.8464 48.9196 98.8464 50.683C98.8464 52.4463 99.2419 54.0409 100.035 55.4592C100.829 56.8774 101.907 57.9884 103.27 58.7945C104.633 59.5981 106.162 60.0011 107.862 60.0011C109.563 60.0011 111.051 59.5981 112.404 58.7945C113.754 57.9909 114.833 56.885 115.639 55.4768C116.445 54.0686 116.845 52.4715 116.845 50.6855C116.845 48.8995 116.455 47.3074 115.671 45.9093C114.888 44.5137 113.817 43.4128 112.455 42.6092L112.452 42.6067ZM113.792 54.4364C113.19 55.5549 112.369 56.4316 111.329 57.0664C110.291 57.7037 109.134 58.0211 107.86 58.0211C106.585 58.0211 105.401 57.7037 104.376 57.0664C103.348 56.429 102.527 55.5524 101.912 54.4364C101.297 53.3205 100.99 52.0685 100.99 50.683C100.99 49.2975 101.292 48.053 101.895 46.9471C102.497 45.8413 103.318 44.9696 104.358 44.3323C105.396 43.695 106.565 43.3776 107.86 43.3776C109.155 43.3776 110.316 43.7025 111.344 44.3499C112.371 44.9974 113.188 45.869 113.79 46.9648C114.392 48.0606 114.694 49.3 114.694 50.6855C114.694 52.071 114.392 53.323 113.79 54.439L113.792 54.4364ZM119.695 35.0897H121.705V59.5956H119.695V35.0897ZM145.281 46.8791C144.679 47.985 144.377 49.2521 144.377 50.683C144.377 52.1138 144.679 53.3809 145.281 54.4868C145.883 55.5927 146.694 56.4593 147.712 57.084C148.727 57.7088 149.873 58.0211 151.148 58.0211C152.423 58.0211 153.471 57.7188 154.433 57.1168C155.393 56.5147 156.141 55.6884 156.677 54.638L158.453 55.6103C158.073 56.4366 157.516 57.1797 156.778 57.8397C156.04 58.4998 155.196 59.0237 154.249 59.4142C153.299 59.8046 152.267 60.0011 151.151 60.0011C149.453 60.0011 147.939 59.593 146.609 58.7769C145.279 57.9607 144.228 56.8497 143.457 55.4416C142.686 54.0334 142.301 52.4489 142.301 50.683C142.301 48.9171 142.686 47.3049 143.457 45.9068C144.228 44.5112 145.279 43.4103 146.609 42.6067C147.939 41.8031 149.45 41.4001 151.151 41.4001C152.267 41.4001 153.302 41.589 154.249 41.9694C155.199 42.3498 156.043 42.8637 156.778 43.5111C157.516 44.1585 158.073 44.9067 158.453 45.7556L156.677 46.6927C156.141 45.6649 155.393 44.8487 154.433 44.2467C153.473 43.6446 152.377 43.3423 151.148 43.3423C149.919 43.3423 148.73 43.6547 147.712 44.2794C146.694 44.9042 145.886 45.7707 145.281 46.8766V46.8791ZM201.057 47.9674V59.5956H199.046V48.5367C199.046 47.4636 198.835 46.5416 198.409 45.7732C197.983 45.0024 197.399 44.4104 196.651 43.9973C195.902 43.5841 195.046 43.3776 194.086 43.3776C193.126 43.3776 192.197 43.6119 191.439 44.0804C190.678 44.549 190.098 45.1989 189.695 46.0252C189.292 46.8514 189.093 47.8011 189.093 48.8743V59.5981H187.083V41.7779H189.093V44.1711C189.504 43.4834 190.053 42.9065 190.751 42.4405C191.789 41.7477 193 41.4026 194.386 41.4026C195.615 41.4026 196.731 41.6822 197.736 42.2415C198.741 42.8007 199.545 43.5766 200.15 44.5716C200.752 45.5667 201.054 46.7003 201.054 47.9724L201.057 47.9674ZM163.759 36.8052C163.759 37.5811 163.129 38.2109 162.353 38.2109C161.577 38.2109 160.947 37.5811 160.947 36.8052C160.947 36.0293 161.577 35.3996 162.353 35.3996C163.129 35.3996 163.759 36.0293 163.759 36.8052ZM161.371 59.5956H163.381V41.7754H161.371V59.5956ZM179.838 42.6067C178.475 41.8031 176.944 41.4001 175.248 41.4001C173.553 41.4001 171.991 41.8031 170.641 42.6067C169.288 43.4103 168.217 44.5162 167.424 45.9244C166.63 47.3326 166.235 48.9196 166.235 50.683C166.235 52.4463 166.63 54.0409 167.424 55.4592C168.217 56.8774 169.296 57.9884 170.658 58.7945C172.021 59.5981 173.55 60.0011 175.251 60.0011C176.951 60.0011 178.44 59.5981 179.793 58.7945C181.146 57.9909 182.221 56.885 183.027 55.4768C183.831 54.0686 184.234 52.4715 184.234 50.6855C184.234 48.8995 183.843 47.3074 183.06 45.9093C182.277 44.5137 181.206 43.4128 179.843 42.6092L179.838 42.6067ZM181.178 54.4364C180.576 55.5549 179.755 56.4316 178.715 57.0664C177.677 57.7037 176.52 58.0211 175.246 58.0211C173.971 58.0211 172.787 57.7037 171.759 57.0664C170.732 56.429 169.91 55.5524 169.296 54.4364C168.681 53.3205 168.374 52.0685 168.374 50.683C168.374 49.2975 168.676 48.053 169.278 46.9471C169.88 45.8413 170.701 44.9696 171.742 44.3323C172.78 43.695 173.948 43.3776 175.243 43.3776C176.538 43.3776 177.699 43.7025 178.727 44.3499C179.755 44.9974 180.571 45.869 181.173 46.9648C181.775 48.0606 182.078 49.3 182.078 50.6855C182.078 52.071 181.775 53.323 181.173 54.439L181.178 54.4364ZM176.032 39.1052H174.163L176.921 34.5078H179.435L176.032 39.1052ZM132.426 59.9986C131.129 59.9986 129.957 59.719 128.907 59.1598C127.856 58.6005 127.018 57.807 126.393 56.7792C125.768 55.7514 125.453 54.5347 125.453 53.1265V41.7754H127.463V53.0257C127.463 54.0762 127.688 54.9755 128.134 55.7237C128.579 56.4719 129.179 57.0412 129.927 57.4342C130.675 57.8246 131.507 58.0211 132.424 58.0211C133.34 58.0211 134.205 57.8246 134.953 57.4342C135.701 57.0437 136.298 56.4744 136.746 55.7237C137.192 54.9755 137.416 54.0762 137.416 53.0257V41.7754H139.427V53.1265C139.427 54.5347 139.114 55.7514 138.49 56.7792C137.865 57.807 137.026 58.6005 135.975 59.1598C134.925 59.7165 133.741 59.9986 132.424 59.9986H132.426ZM96.3273 41.7779H98.6398L91.4931 59.5981H89.4149L82.3689 41.7779H84.6135L90.4704 56.8296L96.3273 41.7779Z"></path></svg>