<svg width="17" height="16" viewBox="0 0 17 16" fill="none" xmlns="http://www.w3.org/2000/svg">
<path fill-rule="evenodd" clip-rule="evenodd" d="M11.5459 7.57013L11.5449 7.57213L4.57987 14.5371L4.57787 14.5391L4.57487 14.5421C4.4588 14.6582 4.32098 14.7503 4.1693 14.8132C4.01763 14.876 3.85505 14.9084 3.69087 14.9084C3.52669 14.9084 3.36412 14.876 3.21244 14.8132C3.06076 14.7503 2.92295 14.6582 2.80687 14.5421L1.92287 13.6581C1.80677 13.5421 1.71466 13.4042 1.65182 13.2526C1.58898 13.1009 1.55664 12.9383 1.55664 12.7741C1.55664 12.6099 1.58898 12.4474 1.65182 12.2957C1.71466 12.144 1.80677 12.0062 1.92287 11.8901L12.4239 1.39013C12.54 1.27402 12.6778 1.18192 12.8294 1.11908C12.9811 1.05624 13.1437 1.0239 13.3079 1.0239C13.4721 1.0239 13.6346 1.05624 13.7863 1.11908C13.938 1.18192 14.0758 1.27402 14.1919 1.39013L15.0759 2.27413C15.3101 2.50852 15.4416 2.8263 15.4416 3.15763C15.4416 3.48896 15.3101 3.80674 15.0759 4.04113L11.5459 7.57013ZM10.6609 4.92013L11.5449 5.80413L14.1919 3.15713L13.3079 2.27413L10.6609 4.92013Z" fill="#0050C3"/>
<path d="M7.35721 4.32812C7.3625 4.34877 7.37451 4.36707 7.39135 4.38014C7.40818 4.39321 7.42889 4.40031 7.45021 4.40031C7.47153 4.40031 7.49224 4.39321 7.50908 4.38014C7.52591 4.36707 7.53792 4.34877 7.54321 4.32812L7.67121 3.83312C7.67797 3.80697 7.69167 3.78313 7.71086 3.76413C7.73004 3.74512 7.754 3.73164 7.78021 3.72512L8.32721 3.59312C8.34858 3.58866 8.36776 3.57698 8.38153 3.56005C8.3953 3.54311 8.40282 3.52195 8.40282 3.50012C8.40282 3.47829 8.3953 3.45713 8.38153 3.44019C8.36776 3.42325 8.34858 3.41157 8.32721 3.40712L7.78021 3.27512C7.75382 3.26876 7.72965 3.25535 7.71028 3.23633C7.6909 3.21731 7.67706 3.19339 7.67021 3.16712L7.54321 2.67212C7.53792 2.65147 7.52591 2.63317 7.50908 2.62009C7.49224 2.60702 7.47153 2.59993 7.45021 2.59993C7.42889 2.59993 7.40818 2.60702 7.39135 2.62009C7.37451 2.63317 7.3625 2.65147 7.35721 2.67212L7.22921 3.16712C7.22245 3.19327 7.20875 3.2171 7.18957 3.23611C7.17038 3.25512 7.14642 3.2686 7.12021 3.27512L6.57321 3.40712C6.55184 3.41157 6.53266 3.42325 6.51889 3.44019C6.50512 3.45713 6.4976 3.47829 6.4976 3.50012C6.4976 3.52195 6.50512 3.54311 6.51889 3.56005C6.53266 3.57698 6.55184 3.58866 6.57321 3.59312L7.12021 3.72512C7.1466 3.73148 7.17077 3.74489 7.19015 3.76391C7.20952 3.78293 7.22336 3.80685 7.23021 3.83312L7.35721 4.32812ZM4.71421 6.95612C4.72479 6.99742 4.7488 7.03402 4.78248 7.06016C4.81616 7.08631 4.85758 7.10049 4.90021 7.10049C4.94284 7.10049 4.98426 7.08631 5.01794 7.06016C5.05162 7.03402 5.07564 6.99742 5.08621 6.95612L5.34221 5.96612C5.35554 5.91373 5.38287 5.86595 5.42127 5.8279C5.45967 5.78985 5.5077 5.76296 5.56021 5.75012L6.65421 5.48512C6.69595 5.47535 6.73315 5.45176 6.75978 5.41817C6.78642 5.38459 6.80091 5.34298 6.80091 5.30012C6.80091 5.25726 6.78642 5.21565 6.75978 5.18207C6.73315 5.14848 6.69595 5.12489 6.65421 5.11512L5.56021 4.85012C5.5077 4.83727 5.45967 4.81039 5.42127 4.77234C5.38287 4.73429 5.35554 4.68651 5.34221 4.63412L5.08621 3.64412C5.07564 3.60282 5.05162 3.56621 5.01794 3.54007C4.98426 3.51393 4.94284 3.49974 4.90021 3.49974C4.85758 3.49974 4.81616 3.51393 4.78248 3.54007C4.7488 3.56621 4.72479 3.60282 4.71421 3.64412L4.45821 4.63412C4.44488 4.68651 4.41755 4.73429 4.37915 4.77234C4.34075 4.81039 4.29272 4.83727 4.24021 4.85012L3.14621 5.11512C3.10448 5.12489 3.06727 5.14848 3.04064 5.18207C3.01401 5.21565 2.99951 5.25726 2.99951 5.30012C2.99951 5.34298 3.01401 5.38459 3.04064 5.41817C3.06727 5.45176 3.10448 5.47535 3.14621 5.48512L4.24021 5.75012C4.34721 5.77612 4.43021 5.85912 4.45821 5.96612L4.71421 6.95612ZM11.2002 12.5001C11.1576 12.5001 11.1162 12.486 11.0826 12.4599C11.0489 12.4339 11.0249 12.3973 11.0142 12.3561L10.7582 11.3661C10.7449 11.3137 10.7176 11.2659 10.6792 11.2279C10.6408 11.1898 10.5927 11.163 10.5402 11.1501L9.44621 10.8851C9.40448 10.8753 9.36727 10.8518 9.34064 10.8182C9.31401 10.7846 9.29951 10.743 9.29951 10.7001C9.29951 10.6573 9.31401 10.6157 9.34064 10.5821C9.36727 10.5485 9.40448 10.5249 9.44621 10.5151L10.5402 10.2501C10.5927 10.2373 10.6408 10.2104 10.6792 10.1723C10.7176 10.1343 10.7449 10.0865 10.7582 10.0341L11.0142 9.04412C11.0248 9.00282 11.0488 8.96621 11.0825 8.94007C11.1162 8.91393 11.1576 8.89974 11.2002 8.89974C11.2428 8.89974 11.2843 8.91393 11.3179 8.94007C11.3516 8.96621 11.3756 9.00282 11.3862 9.04412L11.6422 10.0341C11.6702 10.1411 11.7532 10.2241 11.8602 10.2501L12.9542 10.5151C12.9959 10.5249 13.0332 10.5485 13.0598 10.5821C13.0864 10.6157 13.1009 10.6573 13.1009 10.7001C13.1009 10.743 13.0864 10.7846 13.0598 10.8182C13.0332 10.8518 12.9959 10.8753 12.9542 10.8851L11.8602 11.1501C11.8077 11.163 11.7597 11.1898 11.7213 11.2279C11.6829 11.2659 11.6555 11.3137 11.6422 11.3661L11.3862 12.3561C11.3756 12.3973 11.3515 12.4339 11.3178 12.4599C11.2842 12.486 11.2428 12.5001 11.2002 12.5001Z" fill="#0050C3"/>
</svg>
